<svg width="280" height="277" viewBox="0 0 280 277" fill="none" xmlns="http://www.w3.org/2000/svg">
<g clip-path="url(#clip0_1319_1560)">
<path d="M189 146C189 159.791 183.521 173.018 173.77 182.77C164.018 192.521 150.791 198 137 198C123.209 198 109.982 192.521 100.23 182.77C90.4786 173.018 85 159.791 85 146C85 132.209 90.4786 118.982 100.23 109.23C109.982 99.4786 123.209 94 137 94C150.791 94 164.018 99.4786 173.77 109.23C183.521 118.982 189 132.209 189 146V146ZM163.195 126.305C162.731 125.842 162.178 125.478 161.57 125.234C160.961 124.99 160.31 124.871 159.655 124.884C158.999 124.898 158.353 125.043 157.755 125.312C157.158 125.58 156.62 125.967 156.175 126.448L133.601 155.21L119.996 141.599C119.072 140.738 117.85 140.27 116.587 140.292C115.324 140.314 114.119 140.826 113.225 141.719C112.332 142.612 111.821 143.817 111.798 145.08C111.776 146.343 112.245 147.565 113.106 148.49L130.305 165.695C130.768 166.157 131.32 166.522 131.927 166.767C132.535 167.011 133.185 167.131 133.839 167.119C134.494 167.107 135.139 166.963 135.737 166.696C136.335 166.429 136.873 166.044 137.318 165.565L163.267 133.13C164.151 132.21 164.64 130.98 164.628 129.704C164.615 128.428 164.103 127.208 163.202 126.305H163.195Z" fill="#38B6FF"/>
</g>
<path d="M212.527 68.4167C212.91 68.3848 213.238 68.2327 213.51 67.9605C213.783 67.6884 213.918 67.3613 213.917 66.9792C213.917 66.532 213.773 66.1723 213.485 65.9001C213.198 65.628 212.831 65.5085 212.383 65.5417C211.074 65.6375 209.684 65.2778 208.215 64.4626C206.745 63.6474 205.819 62.1703 205.435 60.0313C205.372 59.6799 205.204 59.3924 204.933 59.1688C204.662 58.9452 204.351 58.8334 203.998 58.8334C203.551 58.8334 203.183 59.0014 202.896 59.3375C202.608 59.6735 202.513 60.0645 202.608 60.5105C203.151 63.4174 204.429 65.4938 206.442 66.7396C208.454 67.9855 210.483 68.5445 212.527 68.4167ZM212 74.1667C207.624 74.1667 203.974 72.6653 201.05 69.6625C198.127 66.6598 196.665 62.9223 196.667 58.45C196.667 55.2556 197.937 51.7813 200.477 48.0272C203.017 44.2731 206.858 40.2085 212 35.8334C217.143 40.2098 220.985 44.275 223.525 48.0291C226.065 51.7832 227.335 55.2569 227.333 58.45C227.333 62.9223 225.872 66.6598 222.948 69.6625C220.025 72.6653 216.375 74.1667 212 74.1667ZM212 70.3334C215.322 70.3334 218.07 69.207 220.242 66.9543C222.414 64.7016 223.5 61.8668 223.5 58.45C223.5 56.1181 222.533 53.4827 220.6 50.5438C218.667 47.6049 215.8 44.3945 212 40.9125C208.199 44.3945 205.332 47.6049 203.4 50.5438C201.468 53.4827 200.501 56.1181 200.5 58.45C200.5 61.8681 201.586 64.7035 203.758 66.9562C205.931 69.2089 208.678 70.3347 212 70.3334Z" fill="#38B6FF" fill-opacity="0.19"/>
<path d="M220.527 234.417C220.91 234.385 221.238 234.233 221.51 233.961C221.783 233.688 221.918 233.361 221.917 232.979C221.917 232.532 221.773 232.172 221.485 231.9C221.198 231.628 220.831 231.508 220.383 231.542C219.074 231.638 217.684 231.278 216.215 230.463C214.745 229.647 213.819 228.17 213.435 226.031C213.372 225.68 213.204 225.392 212.933 225.169C212.662 224.945 212.351 224.833 211.998 224.833C211.551 224.833 211.183 225.001 210.896 225.337C210.608 225.674 210.513 226.065 210.608 226.51C211.151 229.417 212.429 231.494 214.442 232.74C216.454 233.985 218.483 234.544 220.527 234.417ZM220 240.167C215.624 240.167 211.974 238.665 209.05 235.663C206.127 232.66 204.665 228.922 204.667 224.45C204.667 221.256 205.937 217.781 208.477 214.027C211.017 210.273 214.858 206.208 220 201.833C225.143 206.21 228.985 210.275 231.525 214.029C234.065 217.783 235.335 221.257 235.333 224.45C235.333 228.922 233.872 232.66 230.948 235.663C228.025 238.665 224.375 240.167 220 240.167ZM220 236.333C223.322 236.333 226.07 235.207 228.242 232.954C230.414 230.702 231.5 227.867 231.5 224.45C231.5 222.118 230.533 219.483 228.6 216.544C226.667 213.605 223.8 210.394 220 206.913C216.199 210.394 213.332 213.605 211.4 216.544C209.468 219.483 208.501 222.118 208.5 224.45C208.5 227.868 209.586 230.703 211.758 232.956C213.931 235.209 216.678 236.335 220 236.333Z" fill="#38B6FF" fill-opacity="0.19"/>
<path d="M138.527 267.417C138.91 267.385 139.238 267.233 139.51 266.961C139.783 266.688 139.918 266.361 139.917 265.979C139.917 265.532 139.773 265.172 139.485 264.9C139.198 264.628 138.831 264.508 138.383 264.542C137.074 264.638 135.684 264.278 134.215 263.463C132.745 262.647 131.819 261.17 131.435 259.031C131.372 258.68 131.204 258.392 130.933 258.169C130.662 257.945 130.351 257.833 129.998 257.833C129.551 257.833 129.183 258.001 128.896 258.337C128.608 258.674 128.513 259.065 128.608 259.51C129.151 262.417 130.429 264.494 132.442 265.74C134.454 266.985 136.483 267.544 138.527 267.417ZM138 273.167C133.624 273.167 129.974 271.665 127.05 268.663C124.127 265.66 122.665 261.922 122.667 257.45C122.667 254.256 123.937 250.781 126.477 247.027C129.017 243.273 132.858 239.208 138 234.833C143.143 239.21 146.985 243.275 149.525 247.029C152.065 250.783 153.335 254.257 153.333 257.45C153.333 261.922 151.872 265.66 148.948 268.663C146.025 271.665 142.375 273.167 138 273.167ZM138 269.333C141.322 269.333 144.07 268.207 146.242 265.954C148.414 263.702 149.5 260.867 149.5 257.45C149.5 255.118 148.533 252.483 146.6 249.544C144.667 246.605 141.8 243.394 138 239.913C134.199 243.394 131.332 246.605 129.4 249.544C127.468 252.483 126.501 255.118 126.5 257.45C126.5 260.868 127.586 263.703 129.758 265.956C131.931 268.209 134.678 269.335 138 269.333Z" fill="#38B6FF" fill-opacity="0.19"/>
<path d="M46.5272 79.4167C46.9105 79.3848 47.2382 79.2327 47.5104 78.9605C47.7826 78.6884 47.918 78.3613 47.9167 77.9792C47.9167 77.532 47.773 77.1723 47.4855 76.9001C47.198 76.628 46.8306 76.5085 46.3834 76.5417C45.0737 76.6375 43.6841 76.2778 42.2147 75.4626C40.7452 74.6474 39.8188 73.1703 39.4355 71.0313C39.3716 70.6799 39.2042 70.3924 38.9333 70.1688C38.6624 69.9452 38.3507 69.8334 37.998 69.8334C37.5508 69.8334 37.1834 70.0014 36.8959 70.3375C36.6084 70.6735 36.5126 71.0645 36.6084 71.5105C37.1515 74.4174 38.4292 76.4938 40.4417 77.7396C42.4542 78.9855 44.4827 79.5445 46.5272 79.4167ZM46.0001 85.1667C41.6237 85.1667 37.9737 83.6653 35.0502 80.6625C32.1266 77.6598 30.6655 73.9223 30.6667 69.45C30.6667 66.2556 31.9369 62.7813 34.4771 59.0272C37.0173 55.2731 40.8583 51.2085 46.0001 46.8334C51.1431 51.2098 54.9848 55.275 57.525 59.0291C60.0652 62.7832 61.3347 66.2569 61.3334 69.45C61.3334 73.9223 59.8716 77.6598 56.9481 80.6625C54.0245 83.6653 50.3752 85.1667 46.0001 85.1667ZM46.0001 81.3334C49.3223 81.3334 52.0695 80.207 54.2417 77.9543C56.414 75.7016 57.5001 72.8668 57.5001 69.45C57.5001 67.1181 56.5334 64.4827 54.6002 61.5438C52.6669 58.6049 49.8002 55.3945 46.0001 51.9125C42.1987 55.3945 39.332 58.6049 37.4 61.5438C35.468 64.4827 34.5014 67.1181 34.5001 69.45C34.5001 72.8681 35.5862 75.7035 37.7584 77.9562C39.9306 80.2089 42.6779 81.3347 46.0001 81.3334Z" fill="#38B6FF" fill-opacity="0.19"/>
<path d="M129.55 38C129.95 37.9667 130.292 37.808 130.576 37.524C130.86 37.24 131.001 36.8987 131 36.5C131 36.0333 130.85 35.658 130.55 35.374C130.25 35.09 129.867 34.9653 129.4 35C128.033 35.1 126.583 34.7247 125.05 33.874C123.517 33.0233 122.55 31.482 122.15 29.25C122.083 28.8833 121.909 28.5833 121.626 28.35C121.343 28.1167 121.018 28 120.65 28C120.183 28 119.8 28.1753 119.5 28.526C119.2 28.8767 119.1 29.2847 119.2 29.75C119.767 32.7833 121.1 34.95 123.2 36.25C125.3 37.55 127.417 38.1333 129.55 38ZM129 44C124.433 44 120.625 42.4333 117.574 39.3C114.523 36.1667 112.999 32.2667 113 27.6C113 24.2667 114.325 20.6413 116.976 16.724C119.627 12.8067 123.635 8.56533 129 4C134.367 8.56667 138.375 12.8087 141.026 16.726C143.677 20.6433 145.001 24.268 145 27.6C145 32.2667 143.475 36.1667 140.424 39.3C137.373 42.4333 133.565 44 129 44Z" fill="#38B6FF" fill-opacity="0.19"/>
<path d="M256.55 143C256.95 142.967 257.292 142.808 257.576 142.524C257.86 142.24 258.001 141.899 258 141.5C258 141.033 257.85 140.658 257.55 140.374C257.25 140.09 256.867 139.965 256.4 140C255.033 140.1 253.583 139.725 252.05 138.874C250.517 138.023 249.55 136.482 249.15 134.25C249.083 133.883 248.909 133.583 248.626 133.35C248.343 133.117 248.018 133 247.65 133C247.183 133 246.8 133.175 246.5 133.526C246.2 133.877 246.1 134.285 246.2 134.75C246.767 137.783 248.1 139.95 250.2 141.25C252.3 142.55 254.417 143.133 256.55 143ZM256 149C251.433 149 247.625 147.433 244.574 144.3C241.523 141.167 239.999 137.267 240 132.6C240 129.267 241.325 125.641 243.976 121.724C246.627 117.807 250.635 113.565 256 109C261.367 113.567 265.375 117.809 268.026 121.726C270.677 125.643 272.001 129.268 272 132.6C272 137.267 270.475 141.167 267.424 144.3C264.373 147.433 260.565 149 256 149Z" fill="#38B6FF" fill-opacity="0.19"/>
<path d="M51.55 230C51.95 229.967 52.292 229.808 52.576 229.524C52.86 229.24 53.0013 228.899 53 228.5C53 228.033 52.85 227.658 52.55 227.374C52.25 227.09 51.8667 226.965 51.4 227C50.0333 227.1 48.5833 226.725 47.05 225.874C45.5167 225.023 44.55 223.482 44.15 221.25C44.0833 220.883 43.9087 220.583 43.626 220.35C43.3433 220.117 43.018 220 42.65 220C42.1833 220 41.8 220.175 41.5 220.526C41.2 220.877 41.1 221.285 41.2 221.75C41.7667 224.783 43.1 226.95 45.2 228.25C47.3 229.55 49.4167 230.133 51.55 230ZM51 236C46.4333 236 42.6247 234.433 39.574 231.3C36.5233 228.167 34.9987 224.267 35 219.6C35 216.267 36.3253 212.641 38.976 208.724C41.6267 204.807 45.6347 200.565 51 196C56.3667 200.567 60.3753 204.809 63.026 208.726C65.6767 212.643 67.0013 216.268 67 219.6C67 224.267 65.4747 228.167 62.424 231.3C59.3733 234.433 55.5653 236 51 236Z" fill="#38B6FF" fill-opacity="0.19"/>
<path d="M23.5272 162.417C23.9105 162.385 24.2382 162.233 24.5104 161.961C24.7826 161.688 24.918 161.361 24.9167 160.979C24.9167 160.532 24.773 160.172 24.4855 159.9C24.198 159.628 23.8306 159.508 23.3834 159.542C22.0737 159.638 20.6841 159.278 19.2147 158.463C17.7452 157.647 16.8188 156.17 16.4355 154.031C16.3716 153.68 16.2042 153.392 15.9333 153.169C15.6624 152.945 15.3507 152.833 14.998 152.833C14.5508 152.833 14.1834 153.001 13.8959 153.337C13.6084 153.674 13.5126 154.065 13.6084 154.51C14.1515 157.417 15.4292 159.494 17.4417 160.74C19.4542 161.985 21.4827 162.544 23.5272 162.417ZM23.0001 168.167C18.6237 168.167 14.9737 166.665 12.0502 163.663C9.12661 160.66 7.66547 156.922 7.66675 152.45C7.66675 149.256 8.93686 145.781 11.4771 142.027C14.0173 138.273 17.8583 134.208 23.0001 129.833C28.1431 134.21 31.9848 138.275 34.525 142.029C37.0652 145.783 38.3347 149.257 38.3334 152.45C38.3334 156.922 36.8716 160.66 33.9481 163.663C31.0245 166.665 27.3752 168.167 23.0001 168.167ZM23.0001 164.333C26.3223 164.333 29.0695 163.207 31.2417 160.954C33.414 158.702 34.5001 155.867 34.5001 152.45C34.5001 150.118 33.5334 147.483 31.6002 144.544C29.6669 141.605 26.8002 138.394 23.0001 134.913C19.1987 138.394 16.332 141.605 14.4 144.544C12.468 147.483 11.5014 150.118 11.5001 152.45C11.5001 155.868 12.5862 158.703 14.7584 160.956C16.9306 163.209 19.6779 164.335 23.0001 164.333Z" fill="#38B6FF" fill-opacity="0.19"/>
<defs>
<clipPath id="clip0_1319_1560">
<rect width="104" height="104" fill="white" transform="translate(85 94)"/>
</clipPath>
</defs>
</svg>
