<svg width="21" height="21" viewBox="0 0 21 21" fill="none" xmlns="http://www.w3.org/2000/svg">
<path d="M9.6252 20.0813V18.3313C7.80228 18.1271 6.23836 17.3726 4.93345 16.0676C3.62795 14.7621 2.87311 13.1979 2.66895 11.375H0.918945V9.62501H2.66895C2.87311 7.8021 3.62795 6.23789 4.93345 4.93239C6.23836 3.62747 7.80228 2.87293 9.6252 2.66876V0.918762H11.3752V2.66876C13.1981 2.87293 14.7623 3.62747 16.0678 4.93239C17.3727 6.23789 18.1273 7.8021 18.3314 9.62501H20.0814V11.375H18.3314C18.1273 13.1979 17.3727 14.7621 16.0678 16.0676C14.7623 17.3726 13.1981 18.1271 11.3752 18.3313V20.0813H9.6252ZM10.5002 16.625C12.1919 16.625 13.6356 16.0271 14.8314 14.8313C16.0273 13.6354 16.6252 12.1917 16.6252 10.5C16.6252 8.80835 16.0273 7.3646 14.8314 6.16876C13.6356 4.97293 12.1919 4.37501 10.5002 4.37501C8.80853 4.37501 7.36478 4.97293 6.16895 6.16876C4.97311 7.3646 4.3752 8.80835 4.3752 10.5C4.3752 12.1917 4.97311 13.6354 6.16895 14.8313C7.36478 16.0271 8.80853 16.625 10.5002 16.625ZM10.5002 14C9.5377 14 8.71374 13.6573 8.02832 12.9719C7.3429 12.2865 7.0002 11.4625 7.0002 10.5C7.0002 9.53751 7.3429 8.71355 8.02832 8.02814C8.71374 7.34272 9.5377 7.00001 10.5002 7.00001C11.4627 7.00001 12.2867 7.34272 12.9721 8.02814C13.6575 8.71355 14.0002 9.53751 14.0002 10.5C14.0002 11.4625 13.6575 12.2865 12.9721 12.9719C12.2867 13.6573 11.4627 14 10.5002 14ZM10.5002 12.25C10.9814 12.25 11.3936 12.0785 11.7366 11.7355C12.079 11.3931 12.2502 10.9813 12.2502 10.5C12.2502 10.0188 12.079 9.60664 11.7366 9.26364C11.3936 8.92122 10.9814 8.75001 10.5002 8.75001C10.0189 8.75001 9.60711 8.92122 9.2647 9.26364C8.9217 9.60664 8.7502 10.0188 8.7502 10.5C8.7502 10.9813 8.9217 11.3931 9.2647 11.7355C9.60711 12.0785 10.0189 12.25 10.5002 12.25Z" fill="#38B6FF"/>
</svg>
