<svg width="14" height="18" viewBox="0 0 14 18" fill="none" xmlns="http://www.w3.org/2000/svg">
<path d="M4.49984 3.16669H2.83317C2.39114 3.16669 1.96722 3.34228 1.65466 3.65484C1.3421 3.9674 1.1665 4.39133 1.1665 4.83335V14.8334C1.1665 15.2754 1.3421 15.6993 1.65466 16.0119C1.96722 16.3244 2.39114 16.5 2.83317 16.5H11.1665C11.6085 16.5 12.0325 16.3244 12.345 16.0119C12.6576 15.6993 12.8332 15.2754 12.8332 14.8334V4.83335C12.8332 4.39133 12.6576 3.9674 12.345 3.65484C12.0325 3.34228 11.6085 3.16669 11.1665 3.16669H9.49984" stroke="#636363" stroke-width="2" stroke-linecap="round" stroke-linejoin="round"/>
<path d="M4.5 9H4.50833M7.83333 9H9.5M4.5 12.3333H4.50833M7.83333 12.3333H9.5M4.5 3.16667C4.5 2.72464 4.6756 2.30072 4.98816 1.98816C5.30072 1.67559 5.72464 1.5 6.16667 1.5H7.83333C8.27536 1.5 8.69928 1.67559 9.01184 1.98816C9.3244 2.30072 9.5 2.72464 9.5 3.16667C9.5 3.60869 9.3244 4.03262 9.01184 4.34518C8.69928 4.65774 8.27536 4.83333 7.83333 4.83333H6.16667C5.72464 4.83333 5.30072 4.65774 4.98816 4.34518C4.6756 4.03262 4.5 3.60869 4.5 3.16667Z" stroke="#636363" stroke-width="2" stroke-linecap="round" stroke-linejoin="round"/>
</svg>
