<svg width="239" height="239" viewBox="0 0 239 239" fill="none" xmlns="http://www.w3.org/2000/svg">
<path d="M119.5 221.625C178.228 221.625 225.836 194.138 225.836 160.23C225.836 126.323 178.228 98.8361 119.5 98.8361C60.7723 98.8361 13.1641 126.323 13.1641 160.23C13.1641 194.138 60.7723 221.625 119.5 221.625Z" fill="#F5F5F5"/>
<path d="M138.592 211.133L190.761 181.019C191.903 180.359 191.903 179.288 190.761 178.629L91.9914 121.598C91.35 121.273 90.6409 121.103 89.9216 121.103C89.2024 121.103 88.4933 121.273 87.8519 121.598L35.683 151.712C34.5406 152.372 34.5406 153.443 35.683 154.102L134.452 211.133C135.094 211.458 135.803 211.628 136.522 211.628C137.241 211.628 137.95 211.458 138.592 211.133Z" fill="#E0E0E0"/>
<path d="M45.658 152.855L49.7497 150.494C49.7497 150.494 50.7487 141.737 50.0843 134.954C49.1283 125.427 42.9907 113.96 35.6487 116.651C28.3066 119.342 38.9947 129.05 41.3847 137.133C43.7747 145.216 45.658 152.855 45.658 152.855Z" fill="#38B6FF"/>
<path opacity="0.15" d="M45.658 152.855L49.7497 150.494C49.7497 150.494 50.7487 141.737 50.0843 134.954C49.1283 125.427 42.9907 113.96 35.6487 116.651C28.3066 119.342 38.9947 129.05 41.3847 137.133C43.7747 145.216 45.658 152.855 45.658 152.855Z" fill="black"/>
<path d="M47.8001 151.861C47.7351 151.858 47.6736 151.83 47.6289 151.783C47.5842 151.735 47.5598 151.672 47.5611 151.607C48.2781 130.432 37.7622 119.777 37.6331 119.672C37.6098 119.649 37.5913 119.622 37.5787 119.592C37.5661 119.562 37.5596 119.53 37.5596 119.498C37.5596 119.465 37.5661 119.433 37.5787 119.403C37.5913 119.373 37.6098 119.346 37.6331 119.323C37.6796 119.277 37.7423 119.252 37.8076 119.252C37.8729 119.252 37.9355 119.277 37.982 119.323C38.0872 119.433 48.7848 130.236 48.0583 151.626C48.0546 151.691 48.0254 151.753 47.9771 151.796C47.9289 151.84 47.8653 151.863 47.8001 151.861Z" fill="white"/>
<path d="M43.4977 154.547L46.3657 152.864C46.3657 152.864 46.8437 146.856 43.9184 139.557C41.3515 133.199 34.9893 127.927 31.7867 129.041C28.5841 130.155 28.6797 132.406 30.2428 134.796C31.8059 137.186 41.2989 142.85 43.4977 154.547Z" fill="#38B6FF"/>
<path d="M45.0128 153.916C44.9469 153.916 44.8837 153.89 44.8371 153.843C44.7904 153.797 44.7643 153.733 44.7643 153.667C44.8216 140.283 32.2502 131.23 32.1212 131.139C32.0683 131.101 32.0327 131.043 32.0219 130.979C32.0112 130.915 32.0262 130.849 32.0638 130.795C32.0824 130.768 32.1061 130.746 32.1336 130.728C32.161 130.711 32.1917 130.699 32.2238 130.694C32.2559 130.689 32.2887 130.69 32.3203 130.697C32.3519 130.705 32.3817 130.719 32.408 130.738C32.537 130.829 45.314 140.025 45.2614 153.682C45.2566 153.745 45.2285 153.804 45.1825 153.847C45.1365 153.89 45.076 153.915 45.0128 153.916Z" fill="white"/>
<path d="M185.334 26.1514L189.455 28.5414C189.43 28.3607 189.418 28.1787 189.416 27.9965V26.768C189.416 24.6457 190.908 23.7853 192.762 24.856C193.553 25.3435 194.23 25.9956 194.746 26.768C195.047 24.1008 197.136 23.1065 199.684 24.574C202.432 26.1609 204.665 30.0232 204.665 33.178V34.9609C204.683 35.6743 204.537 36.3823 204.239 37.0307L207.662 39.0048C208.199 39.3546 208.645 39.826 208.966 40.3808C209.286 40.9356 209.472 41.5581 209.507 42.1978C209.507 43.3785 208.68 43.8517 207.662 43.2638L185.334 30.4104C184.798 30.0605 184.351 29.5891 184.03 29.0344C183.71 28.4796 183.524 27.8571 183.489 27.2173C183.489 26.0367 184.316 25.5587 185.334 26.1514Z" fill="#EBEBEB"/>
<path d="M168.256 36.7534L171.272 38.4933C171.265 38.3612 171.265 38.2287 171.272 38.0966V37.2219C171.272 35.6636 172.362 35.0326 173.71 35.7879C174.282 36.1473 174.771 36.6248 175.144 37.1884C175.363 35.2286 176.898 34.502 178.762 35.5775C179.824 36.2701 180.708 37.203 181.343 38.3009C181.977 39.3987 182.344 40.6306 182.414 41.8967V43.2064C182.426 43.7284 182.319 44.2464 182.103 44.7217L184.608 46.1557C185.003 46.4116 185.331 46.7572 185.567 47.1642C185.803 47.5712 185.94 48.0282 185.965 48.4979C185.965 49.3631 185.358 49.712 184.608 49.277L168.256 39.8795C167.861 39.6223 167.533 39.2757 167.298 38.8679C167.063 38.4601 166.928 38.0026 166.903 37.5326C166.884 36.6722 167.486 36.328 168.256 36.7534Z" fill="#EBEBEB"/>
<path d="M187.596 170.775C188.342 171.349 188.26 172.166 187.362 172.687L138.142 201.114C137.587 201.394 136.974 201.541 136.352 201.541C135.73 201.541 135.117 201.394 134.562 201.114L40.4341 146.779C39.5211 146.254 39.4494 145.427 40.2238 144.867C39.7607 145.217 39.3794 145.663 39.1061 146.175C38.8329 146.687 38.6744 147.252 38.6416 147.831V150.197C38.6757 150.819 38.8558 151.425 39.1672 151.965C39.4786 152.504 39.9126 152.963 40.4341 153.304L134.528 207.619C135.084 207.902 135.698 208.05 136.321 208.05C136.944 208.05 137.558 207.902 138.113 207.619L187.347 179.197C187.869 178.858 188.303 178.4 188.615 177.861C188.926 177.322 189.106 176.717 189.14 176.095V173.705C189.106 173.135 188.951 172.579 188.685 172.073C188.418 171.568 188.047 171.125 187.596 170.775Z" fill="#455A64"/>
<path d="M187.377 170.617L93.2536 116.283C92.6986 116.002 92.0854 115.856 91.4635 115.856C90.8416 115.856 90.2284 116.002 89.6734 116.283L40.4394 144.715C39.4499 145.283 39.4499 146.211 40.4394 146.779L134.538 201.114C135.093 201.394 135.707 201.541 136.329 201.541C136.95 201.541 137.564 201.394 138.119 201.114L187.353 172.682C188.333 172.113 188.333 171.186 187.377 170.617ZM174.609 166.225C175.455 166.703 175.455 167.506 174.609 167.993L129.84 193.848C129.363 194.089 128.837 194.214 128.303 194.214C127.769 194.214 127.243 194.089 126.766 193.848L53.4792 151.526C52.6331 151.048 52.6331 150.24 53.4792 149.753L98.2535 123.902C99.0995 123.424 99.9838 123.128 100.83 123.616L174.609 166.225Z" fill="#37474F"/>
<path d="M40.2238 144.834C39.7607 145.184 39.3794 145.63 39.1061 146.141C38.8329 146.653 38.6744 147.218 38.6416 147.798V150.164C38.6761 150.786 38.8563 151.391 39.1677 151.931C39.479 152.47 39.9128 152.929 40.4341 153.271L134.528 207.619C135.082 207.911 135.7 208.059 136.326 208.05V201.539C135.702 201.551 135.085 201.405 134.533 201.114L40.4341 146.779C39.5211 146.268 39.4494 145.427 40.2238 144.834Z" fill="#263238"/>
<path d="M69.7877 133.29C70.4521 132.908 70.4521 132.287 69.7877 131.904C69.4171 131.717 69.0078 131.62 68.5927 131.62C68.1776 131.62 67.7683 131.717 67.3977 131.904C66.7333 132.287 66.7333 132.908 67.3977 133.29C67.7683 133.477 68.1776 133.575 68.5927 133.575C69.0078 133.575 69.4171 133.477 69.7877 133.29Z" fill="black"/>
<path d="M160.914 185.282C162.477 184.384 162.477 182.921 160.914 182.022C160.039 181.575 159.07 181.342 158.087 181.342C157.104 181.342 156.135 181.575 155.259 182.022C153.696 182.921 153.696 184.384 155.259 185.282C156.135 185.73 157.104 185.963 158.087 185.963C159.07 185.963 160.039 185.73 160.914 185.282Z" stroke="#E6E6E6" stroke-miterlimit="10"/>
<path d="M68.5878 137.889L77.861 132.54C78.4107 132.22 78.4394 131.718 77.9232 131.417C77.6221 131.273 77.2919 131.202 76.9584 131.207C76.625 131.213 76.2975 131.296 76.0016 131.45L66.7284 136.799C66.1787 137.119 66.15 137.621 66.6663 137.922C66.9673 138.066 67.2975 138.137 67.631 138.131C67.9644 138.126 68.2919 138.042 68.5878 137.889Z" fill="black"/>
<path d="M100.829 123.635C99.9829 123.157 99.0986 123.429 98.2526 123.922L53.4783 149.772C52.6322 150.25 52.6322 151.053 53.4783 151.545L126.746 193.843C127.223 194.084 127.749 194.209 128.283 194.209C128.817 194.209 129.343 194.084 129.82 193.843L174.589 167.988C175.44 167.51 175.44 166.707 174.589 166.22L100.829 123.635Z" fill="#38B6FF"/>
<path opacity="0.85" d="M100.829 123.635C99.9829 123.157 99.0986 123.429 98.2526 123.922L53.4783 149.772C52.6322 150.25 52.6322 151.053 53.4783 151.545L126.746 193.843C127.223 194.084 127.749 194.209 128.283 194.209C128.817 194.209 129.343 194.084 129.82 193.843L174.589 167.988C175.44 167.51 175.44 166.707 174.589 166.22L100.829 123.635Z" fill="white"/>
<path d="M58.6368 152.095L58.1588 151.818C58.1368 151.809 58.1179 151.795 58.1045 151.776C58.0911 151.756 58.084 151.733 58.084 151.71C58.084 151.687 58.0911 151.664 58.1045 151.645C58.1179 151.625 58.1368 151.611 58.1588 151.602L58.2114 151.574C58.2688 151.543 58.3328 151.527 58.3978 151.527C58.4628 151.527 58.5268 151.543 58.5842 151.574L59.0622 151.846C59.1626 151.908 59.1626 152.004 59.0622 152.061L59.0096 152.095C58.9516 152.123 58.8878 152.138 58.8232 152.138C58.7586 152.138 58.6948 152.123 58.6368 152.095Z" fill="#455A64"/>
<path d="M59.4872 151.602L58.6602 151.124C58.5599 151.067 58.5599 150.972 58.6602 150.909L58.7128 150.881C58.7709 150.852 58.8346 150.838 58.8992 150.838C58.9638 150.838 59.0276 150.852 59.0857 150.881L59.9126 151.359C60.013 151.416 60.013 151.512 59.9126 151.574L59.86 151.602C59.802 151.631 59.7382 151.646 59.6736 151.646C59.609 151.646 59.5453 151.631 59.4872 151.602Z" fill="#455A64"/>
<path d="M60.3379 151.11L59.1668 150.436C59.0616 150.374 59.0616 150.278 59.1668 150.221L59.2193 150.188C59.2774 150.159 59.3412 150.145 59.4058 150.145C59.4704 150.145 59.5341 150.159 59.5922 150.188L60.7633 150.866C60.7852 150.875 60.8042 150.889 60.8175 150.908C60.8309 150.928 60.8381 150.95 60.8381 150.974C60.8381 150.997 60.8309 151.02 60.8175 151.039C60.8042 151.059 60.7852 151.073 60.7633 151.081L60.7107 151.11C60.6533 151.141 60.5893 151.157 60.5243 151.157C60.4593 151.157 60.3953 151.141 60.3379 151.11Z" fill="#455A64"/>
<path d="M61.1838 150.623L59.1619 149.451C59.0567 149.394 59.0567 149.299 59.1619 149.236L59.2145 149.208C59.2722 149.178 59.3361 149.163 59.4009 149.163C59.4657 149.163 59.5296 149.178 59.5873 149.208L61.6045 150.374C61.7096 150.436 61.7096 150.532 61.6045 150.589L61.5567 150.623C61.4986 150.651 61.4348 150.666 61.3702 150.666C61.3056 150.666 61.2419 150.651 61.1838 150.623Z" fill="#455A64"/>
<path d="M63.6262 149.37C63.594 149.374 63.5616 149.365 63.5354 149.346L63.239 149.174L62.283 149.724C62.2625 149.738 62.2384 149.745 62.2137 149.745C62.189 149.745 62.1649 149.738 62.1444 149.724L62.0345 149.662L61.9867 149.628V149.581L61.9389 148.381C61.9357 148.363 61.9357 148.346 61.9389 148.328C61.9547 148.31 61.9742 148.295 61.9962 148.285L62.1253 148.209C62.1591 148.189 62.1964 148.176 62.2352 148.17C62.2706 148.171 62.3053 148.181 62.3356 148.199L63.3729 148.797L63.5832 148.677C63.6146 148.656 63.6507 148.643 63.6884 148.639C63.7224 148.639 63.7556 148.649 63.784 148.668L63.8557 148.711C63.8891 148.711 63.9034 148.744 63.8987 148.763C63.8939 148.782 63.8987 148.797 63.8365 148.821L63.6262 148.945L63.9226 149.117C63.956 149.117 63.9704 149.15 63.9656 149.169C63.9608 149.189 63.9417 149.208 63.8987 149.232L63.7362 149.322C63.7052 149.349 63.6669 149.366 63.6262 149.37ZM63.0478 148.993L62.3069 148.567L62.3547 149.394L63.0478 148.993Z" fill="#455A64"/>
<path d="M64.5779 148.615C64.2433 148.631 63.9112 148.55 63.6219 148.381C63.3255 148.209 63.1917 148.022 63.2156 147.822C63.2395 147.621 63.4259 147.425 63.7653 147.229C63.8992 147.149 64.04 147.082 64.1859 147.028C64.3142 146.978 64.4471 146.942 64.5827 146.918C64.6027 146.91 64.6248 146.91 64.6448 146.918C64.6469 146.926 64.6469 146.934 64.6448 146.942L64.6878 147.066C64.6925 147.072 64.6951 147.078 64.6951 147.085C64.6951 147.092 64.6925 147.099 64.6878 147.105H64.6353C64.4294 147.145 64.2321 147.221 64.0521 147.329C63.8227 147.458 63.6984 147.597 63.6793 147.735C63.6601 147.874 63.7653 148.013 63.9947 148.142C64.2045 148.27 64.4469 148.335 64.6926 148.328C64.9358 148.319 65.1727 148.248 65.3809 148.123C65.4555 148.079 65.5274 148.031 65.596 147.979C65.6505 147.941 65.6989 147.894 65.7394 147.841L65.2614 147.563L64.8647 147.793C64.8309 147.813 64.7936 147.826 64.7548 147.831C64.721 147.83 64.688 147.82 64.6592 147.802L64.5922 147.764C64.5604 147.745 64.546 147.726 64.5492 147.707C64.5492 147.707 64.5731 147.673 64.6114 147.649L65.2471 147.281C65.2848 147.259 65.3274 147.245 65.3714 147.243C65.4105 147.244 65.4486 147.255 65.4813 147.277L66.1696 147.673C66.189 147.681 66.2057 147.694 66.2174 147.712C66.2174 147.712 66.2174 147.735 66.2174 147.755C66.0673 147.979 65.8592 148.159 65.6152 148.276C65.3026 148.472 64.9463 148.589 64.5779 148.615Z" fill="#455A64"/>
<path d="M77.8087 139.327L78.932 139.978C78.9795 140.001 79.0319 140.013 79.0849 140.013C79.138 140.013 79.1904 140.001 79.2379 139.978L80.3708 139.327C80.452 139.275 80.452 139.198 80.3708 139.151L79.2427 138.501C79.1959 138.475 79.1432 138.461 79.0897 138.461C79.0362 138.461 78.9836 138.475 78.9368 138.501L77.8087 139.151C77.7226 139.198 77.7226 139.275 77.8087 139.327Z" fill="#455A64"/>
<path d="M78.5877 138.443C78.4389 138.371 78.2751 138.335 78.1097 138.338C77.9442 138.334 77.7801 138.37 77.6317 138.443C77.4118 138.572 77.4118 138.768 77.6317 138.892L78.0189 139.117L78.3009 139.06L77.9137 138.84C77.8794 138.827 77.8498 138.804 77.8289 138.773C77.808 138.743 77.7969 138.707 77.7969 138.67C77.7969 138.633 77.808 138.597 77.8289 138.567C77.8498 138.537 77.8794 138.514 77.9137 138.501C77.9754 138.467 78.0443 138.449 78.1145 138.448C78.1835 138.446 78.2517 138.464 78.3105 138.501L78.6976 138.725L78.9844 138.668L78.5877 138.443Z" fill="#455A64"/>
<path d="M99.0993 126.584C98.91 126.578 98.7222 126.62 98.5544 126.708L95.6864 128.357C95.4379 128.496 95.4379 128.721 95.6864 128.864L96.7285 129.462C96.8963 129.549 97.084 129.592 97.2734 129.586C97.3615 129.585 97.4495 129.577 97.5363 129.562C97.6342 129.546 97.7282 129.512 97.8135 129.462L100.682 127.817C100.925 127.674 100.925 127.449 100.682 127.311L99.6395 126.708C99.4734 126.62 99.2872 126.577 99.0993 126.584ZM97.2829 129.452C97.201 129.451 97.1205 129.429 97.0487 129.39L96.0115 128.788C95.9715 128.773 95.937 128.747 95.9125 128.712C95.8881 128.678 95.875 128.636 95.875 128.594C95.875 128.552 95.8881 128.51 95.9125 128.476C95.937 128.441 95.9715 128.415 96.0115 128.4L98.8795 126.756C98.9249 126.728 98.9751 126.709 99.0276 126.699H99.1137C99.1946 126.701 99.2735 126.724 99.3431 126.766L100.38 127.363C100.42 127.377 100.455 127.404 100.479 127.438C100.504 127.473 100.517 127.514 100.517 127.557C100.517 127.599 100.504 127.64 100.479 127.675C100.455 127.71 100.42 127.736 100.38 127.75L97.5124 129.399C97.4428 129.441 97.3639 129.464 97.2829 129.466V129.452Z" fill="#455A64"/>
<path d="M97.3635 129.266L97.3253 129.242L96.3693 128.702C96.34 128.691 96.3147 128.671 96.2969 128.645C96.2791 128.62 96.2695 128.589 96.2695 128.558C96.2695 128.527 96.2791 128.496 96.2969 128.471C96.3147 128.445 96.34 128.426 96.3693 128.415L98.9409 126.933C98.9569 126.922 98.9747 126.914 98.9935 126.909L99.0317 126.933L99.9877 127.473C100.015 127.485 100.039 127.504 100.056 127.529C100.073 127.554 100.081 127.584 100.081 127.614C100.081 127.644 100.073 127.674 100.056 127.699C100.039 127.724 100.015 127.743 99.9877 127.755L97.4161 129.242L97.3635 129.266Z" fill="#455A64"/>
<path d="M99.7874 126.632C99.8861 126.608 99.9887 126.606 100.088 126.625C100.188 126.644 100.283 126.684 100.366 126.742L100.557 126.856C100.772 126.976 100.863 127.129 100.763 127.196L100.576 127.311L99.6201 126.742L99.7874 126.632Z" fill="#455A64"/>
<path d="M83.4546 154.719C84.1573 154.69 84.844 154.5 85.4622 154.165C86.6285 153.491 86.9296 152.573 85.0798 151.421C85.0176 151.769 84.8755 152.097 84.6649 152.381C84.4542 152.665 84.1806 152.896 83.8656 153.056C82.2787 153.973 80.4718 154.208 79.0139 153.371C77.556 152.535 78.0579 151.292 79.6545 150.374C80.6818 149.788 81.8448 149.482 83.0275 149.486C84.2102 149.49 85.3711 149.805 86.3943 150.398C89.095 151.956 88.4879 153.605 86.5759 154.7C85.5752 155.26 84.4608 155.587 83.3159 155.656L83.4546 154.719ZM84.1285 150.924C82.728 150.317 81.5378 150.403 80.6344 150.924C79.8743 151.359 79.7214 151.994 80.5627 152.477C80.984 152.705 81.4596 152.814 81.9382 152.791C82.4167 152.768 82.8798 152.615 83.2777 152.348C83.5459 152.223 83.7703 152.021 83.922 151.767C84.0737 151.513 84.1457 151.219 84.1285 150.924Z" fill="#455A64"/>
<path d="M87.4738 147.917C87.7588 147.744 88.081 147.642 88.4136 147.619C88.7461 147.595 89.0794 147.652 89.3858 147.783C89.8638 148.07 89.773 148.548 89.1611 148.897C88.8715 149.074 88.5438 149.179 88.2053 149.203C87.8667 149.227 87.5274 149.17 87.2157 149.036C86.7233 148.754 86.8476 148.271 87.4738 147.917ZM91.207 150.073C91.4922 149.9 91.8146 149.799 92.1473 149.776C92.4799 149.754 92.8131 149.811 93.119 149.944C93.597 150.226 93.5061 150.704 92.8943 151.058C92.6043 151.233 92.2766 151.338 91.9383 151.362C91.6 151.386 91.2608 151.329 90.9488 151.196C90.4613 150.914 90.5808 150.427 91.1926 150.092L91.207 150.073Z" fill="#455A64"/>
<path d="M91.8379 147.468C89.4909 146.11 89.4909 144.7 91.4125 143.586C93.334 142.473 95.791 142.482 98.1332 143.835C100.475 145.188 100.523 146.641 98.6112 147.755C96.6992 148.868 94.1897 148.825 91.8379 147.468ZM96.5271 144.758C94.5625 143.625 93.3006 143.634 92.3972 144.155C91.4937 144.676 91.4746 145.408 93.4392 146.545C95.4038 147.683 96.7517 147.702 97.6408 147.191C98.5299 146.679 98.4964 145.895 96.5271 144.758Z" fill="#455A64"/>
<path d="M99.3139 143.151C96.9621 141.794 96.9621 140.384 98.8836 139.275C100.805 138.166 103.267 138.171 105.604 139.519C107.942 140.867 108.023 142.329 106.082 143.438C104.142 144.547 101.661 144.509 99.3139 143.151ZM104.003 140.446C102.034 139.308 100.772 139.318 99.8683 139.839C98.9649 140.36 98.9458 141.091 100.915 142.229C102.885 143.367 104.228 143.381 105.112 142.869C105.996 142.358 105.968 141.579 104.003 140.446Z" fill="#455A64"/>
<path d="M87.2641 165.211L124.873 143.5C125.318 143.276 125.809 143.159 126.307 143.159C126.805 143.159 127.296 143.276 127.741 143.5L137.354 149.05C138.147 149.528 138.147 150.25 137.354 150.709L99.759 172.419C99.3144 172.644 98.8232 172.761 98.325 172.761C97.8268 172.761 97.3356 172.644 96.891 172.419L87.2641 166.87C86.4706 166.411 86.4706 165.67 87.2641 165.211Z" fill="#38B6FF"/>
<path d="M91.2977 165.947L98.028 169.829C98.2193 169.928 98.4316 169.979 98.647 169.979C98.8624 169.979 99.0746 169.928 99.266 169.829L109.184 164.093C109.529 163.892 109.529 163.572 109.184 163.376L102.454 159.489C102.262 159.393 102.05 159.342 101.835 159.342C101.62 159.342 101.408 159.393 101.216 159.489L91.2977 165.225C91.2206 165.249 91.153 165.297 91.1051 165.362C91.0571 165.427 91.0312 165.506 91.0313 165.586C91.0312 165.667 91.0571 165.746 91.1051 165.811C91.153 165.876 91.2206 165.924 91.2977 165.947Z" fill="#FAFAFA"/>
<path d="M101.451 164.078L109.429 163.763L101.479 163.643L101.8 159.356L100.495 164.647L91.0352 165.584L98.7596 165.221L98.5684 169.977L99.1612 165.202L101.374 165.096L101.451 164.078Z" fill="#38B6FF"/>
<path d="M105.638 157.463L115.355 151.875C115.598 151.752 115.865 151.688 116.137 151.688C116.409 151.688 116.676 151.752 116.919 151.875C117.344 152.119 117.33 152.52 116.885 152.778L107.167 158.366C106.925 158.489 106.657 158.553 106.386 158.553C106.114 158.553 105.846 158.489 105.604 158.366C105.184 158.122 105.203 157.74 105.638 157.463Z" fill="#FAFAFA"/>
<path d="M108.635 159.174L128.328 147.793C128.571 147.67 128.838 147.606 129.11 147.606C129.382 147.606 129.649 147.67 129.892 147.793C130.317 148.037 130.303 148.443 129.858 148.696L110.164 160.077C109.921 160.2 109.653 160.263 109.381 160.263C109.108 160.263 108.84 160.2 108.597 160.077C108.176 159.848 108.19 159.446 108.635 159.174Z" fill="#FAFAFA"/>
<path d="M111.623 160.914L131.321 149.533C131.563 149.41 131.831 149.346 132.103 149.346C132.374 149.346 132.642 149.41 132.884 149.533C133.305 149.777 133.29 150.183 132.851 150.436L113.152 161.817C112.91 161.94 112.642 162.004 112.371 162.004C112.099 162.004 111.832 161.94 111.589 161.817C111.164 161.564 111.183 161.172 111.623 160.914Z" fill="#FAFAFA"/>
<path d="M82.957 86.7761L146.713 49.9701L149.265 51.4424C149.613 51.6713 149.903 51.9787 150.11 52.3398C150.318 52.701 150.438 53.1058 150.46 53.5217V100.552C150.438 100.968 150.318 101.373 150.111 101.734C149.903 102.095 149.613 102.403 149.265 102.631L87.9043 138.051C87.5331 138.236 87.124 138.332 86.7093 138.332C86.2946 138.332 85.8856 138.236 85.5143 138.051L84.1664 137.272C83.8181 137.043 83.5281 136.736 83.3198 136.375C83.1115 136.014 82.9905 135.609 82.9666 135.193L82.957 86.7761Z" fill="#38B6FF"/>
<path opacity="0.05" d="M82.957 86.7761L146.713 49.9701L149.265 51.4424C149.613 51.6713 149.903 51.9787 150.11 52.3398C150.318 52.701 150.438 53.1058 150.46 53.5217V100.552C150.438 100.968 150.318 101.373 150.111 101.734C149.903 102.095 149.613 102.403 149.265 102.631L87.9043 138.051C87.5331 138.236 87.124 138.332 86.7093 138.332C86.2946 138.332 85.8856 138.236 85.5143 138.051L84.1664 137.272C83.8181 137.043 83.5281 136.736 83.3198 136.375C83.1115 136.014 82.9905 135.609 82.9666 135.193L82.957 86.7761Z" fill="black"/>
<path d="M146.359 45.8306L146.622 45.6872L145.632 45.1136C145.547 45.0654 145.457 45.0238 145.365 44.9894L117.306 34.5929C116.921 34.4638 116.506 34.4605 116.119 34.5834C115.732 34.7063 115.395 34.949 115.155 35.2764L83.7649 81.1118C83.2776 81.9022 82.9995 82.8037 82.957 83.7313V86.7761L83.913 87.3402L146.698 49.9653V46.9205C146.689 46.5326 146.572 46.155 146.359 45.8306Z" fill="#38B6FF"/>
<path opacity="0.1" d="M116.451 35.5011C116.326 35.5989 116.216 35.7149 116.126 35.8452L84.7354 81.6806C84.4776 82.0861 84.2811 82.5274 84.1523 82.9904L83.1963 82.4263C83.267 82.1905 83.3516 81.9591 83.4496 81.7332C83.4926 81.6376 83.5357 81.5468 83.5835 81.456V81.413C83.6332 81.317 83.6891 81.2244 83.7508 81.1357L115.151 35.2812C115.198 35.2133 115.251 35.1493 115.308 35.09L115.476 34.937L116.451 35.5011Z" fill="black"/>
<path opacity="0.35" d="M146.607 45.6872C146.522 45.6356 146.433 45.5924 146.339 45.5582L118.276 35.1569C117.968 35.0543 117.638 35.032 117.319 35.0923C116.999 35.1525 116.7 35.2932 116.45 35.5011L115.494 34.937C115.746 34.7311 116.046 34.5917 116.366 34.5316C116.685 34.4714 117.015 34.4925 117.325 34.5929L145.383 44.9894C145.475 45.0236 145.563 45.0668 145.646 45.1184L146.607 45.6872Z" fill="white"/>
<path d="M115.312 35.09C115.364 35.0341 115.42 34.9829 115.48 34.937C115.419 34.9817 115.362 35.033 115.312 35.09Z" fill="#38B6FF"/>
<path opacity="0.2" d="M83.5732 81.4369C83.5732 81.4369 83.5732 81.4034 83.5732 81.3891C83.5732 81.3747 83.5828 81.4225 83.5732 81.4369Z" fill="black"/>
<path opacity="0.2" d="M115.155 35.2764C115.201 35.2089 115.254 35.1464 115.313 35.09C115.253 35.1451 115.2 35.2078 115.155 35.2764Z" fill="black"/>
<path d="M116.125 35.85L84.7394 81.6902C84.2478 82.4772 83.9679 83.3779 83.9268 84.3049V87.3497L147.682 50.5437V47.4845C147.659 47.0724 147.52 46.6751 147.283 46.3373C147.046 45.9995 146.719 45.7346 146.339 45.5725L118.281 35.176C117.896 35.0486 117.481 35.0451 117.094 35.166C116.707 35.2869 116.368 35.5262 116.125 35.85Z" fill="#38B6FF"/>
<path d="M90.868 131.646L88.8221 130.465C88.6533 130.337 88.5206 130.166 88.4369 129.971C88.3531 129.776 88.3212 129.563 88.3441 129.352V65.6055C88.3709 64.9584 88.5688 64.33 88.9177 63.7843L90.997 64.9793C90.6452 65.5271 90.4471 66.1594 90.4234 66.8101V130.532C90.398 130.74 90.4254 130.951 90.5031 131.146C90.5808 131.341 90.7063 131.513 90.868 131.646Z" fill="#E0E0E0"/>
<path d="M92.1439 63.7652L143.357 34.2057C144.313 33.6416 145.111 34.0957 145.111 35.219V98.946C145.079 99.5558 144.904 100.149 144.599 100.679C144.294 101.208 143.868 101.657 143.357 101.991L92.1439 131.546C91.1879 132.105 90.3896 131.651 90.3896 130.527V66.8101C90.4227 66.2005 90.5987 65.6073 90.9035 65.0783C91.2082 64.5494 91.6331 64.0995 92.1439 63.7652Z" fill="#F0F0F0"/>
<path d="M142.52 32.8816L144.528 34.0479C144.333 33.9755 144.124 33.9528 143.918 33.982C143.713 34.0113 143.518 34.0914 143.352 34.2152L92.1436 63.77C91.6524 64.0661 91.2445 64.4823 90.9582 64.9793L88.8789 63.7843C89.1674 63.288 89.5727 62.8696 90.0596 62.5654L141.272 32.982C141.45 32.8511 141.661 32.7715 141.881 32.7521C142.101 32.7328 142.322 32.7742 142.52 32.8721V32.8816Z" fill="#FAFAFA"/>
<path d="M96.1398 67.1016L138.725 42.5133C139.298 42.1835 139.762 42.4177 139.762 43.0391C139.736 43.3865 139.629 43.7229 139.448 44.021C139.268 44.3192 139.02 44.5707 138.725 44.7551L96.1398 69.3435C95.5662 69.6733 95.1025 69.4391 95.1025 68.8224C95.1278 68.4742 95.2349 68.1369 95.4151 67.8378C95.5954 67.5388 95.8437 67.2866 96.1398 67.1016Z" fill="#E0E0E0"/>
<path d="M96.1398 71.5709L138.725 46.9826C139.298 46.6528 139.762 46.887 139.762 47.5084C139.736 47.8558 139.629 48.1922 139.448 48.4903C139.268 48.7885 139.02 49.04 138.725 49.2244L96.1398 73.8128C95.5662 74.1426 95.1025 73.9084 95.1025 73.2917C95.1278 72.9435 95.2349 72.6062 95.4151 72.3071C95.5954 72.0081 95.8437 71.7559 96.1398 71.5709Z" fill="#E0E0E0"/>
<path d="M96.1398 76.0402L138.725 51.4519C139.298 51.1221 139.762 51.3563 139.762 51.9729C139.737 52.3212 139.63 52.6585 139.449 52.9575C139.269 53.2566 139.021 53.5088 138.725 53.6937L96.1398 78.2821C95.5662 78.6119 95.1025 78.3777 95.1025 77.761C95.1278 77.4128 95.2349 77.0755 95.4151 76.7764C95.5954 76.4774 95.8437 76.2252 96.1398 76.0402Z" fill="#E0E0E0"/>
<path d="M96.1398 80.5095L138.725 55.926C139.298 55.5962 139.762 55.8304 139.762 56.447C139.737 56.7952 139.63 57.1326 139.449 57.4316C139.269 57.7306 139.021 57.9829 138.725 58.1678L96.1398 82.7561C95.5662 83.086 95.1025 82.8517 95.1025 82.2303C95.1278 81.8821 95.2349 81.5448 95.4151 81.2457C95.5954 80.9467 95.8437 80.6945 96.1398 80.5095Z" fill="#E0E0E0"/>
<path d="M96.1398 84.9788L138.725 60.3905C139.298 60.0607 139.762 60.2949 139.762 60.9115C139.737 61.2598 139.63 61.5971 139.449 61.8961C139.269 62.1952 139.021 62.4474 138.725 62.6323L96.1398 87.2207C95.5662 87.5505 95.1025 87.3163 95.1025 86.6949C95.1285 86.3475 95.236 86.0111 95.4162 85.7129C95.5964 85.4148 95.8443 85.1633 96.1398 84.9788Z" fill="#E0E0E0"/>
<path d="M96.1398 89.4481L138.725 64.8598C139.298 64.53 139.762 64.7642 139.762 65.3808C139.737 65.7291 139.63 66.0664 139.449 66.3654C139.269 66.6644 139.021 66.9167 138.725 67.1016L96.1398 91.69C95.5662 92.0198 95.1025 91.7856 95.1025 91.1642C95.1285 90.8168 95.236 90.4804 95.4162 90.1822C95.5964 89.8841 95.8443 89.6326 96.1398 89.4481Z" fill="#E0E0E0"/>
<path d="M96.1398 93.9174L138.725 69.31C139.298 68.9802 139.762 69.2144 139.762 69.831C139.737 70.1792 139.63 70.5166 139.449 70.8156C139.269 71.1146 139.021 71.3669 138.725 71.5518L96.1398 96.1401C95.5662 96.47 95.1025 96.2357 95.1025 95.6143C95.1314 95.2703 95.2402 94.9377 95.4203 94.6431C95.6004 94.3485 95.8468 94.1 96.1398 93.9174Z" fill="#E0E0E0"/>
<path d="M96.1398 98.3867L138.725 73.7984C139.298 73.4638 139.762 73.7028 139.762 74.3194C139.737 74.6677 139.63 75.005 139.449 75.304C139.269 75.603 139.021 75.8553 138.725 76.0402L96.1398 100.629C95.5662 100.958 95.1025 100.724 95.1025 100.103C95.1285 99.7554 95.236 99.419 95.4162 99.1208C95.5964 98.8227 95.8443 98.5712 96.1398 98.3867Z" fill="#E0E0E0"/>
<path d="M148.844 101.173C148.825 101.208 148.803 101.24 148.777 101.269L122.21 89.4864C121.201 89.0401 120.065 88.9733 119.011 89.2983C117.957 89.6233 117.056 90.3182 116.474 91.255L88.0712 136.828L87.0196 137.435C86.9025 137.516 86.7668 137.567 86.6249 137.583C86.4829 137.599 86.3393 137.579 86.207 137.525L115.418 90.6527C116.001 89.7174 116.902 89.0234 117.955 88.6978C119.009 88.3721 120.144 88.4366 121.154 88.8793L148.844 101.173Z" fill="#38B6FF"/>
<path opacity="0.4" d="M113.85 95.3992L113.916 95.3419L88.0615 136.832L87.0099 137.439C86.8922 137.52 86.7566 137.57 86.6149 137.586C86.4732 137.602 86.3298 137.583 86.1973 137.53L112.808 94.7874L113.85 95.3992Z" fill="white"/>
<path opacity="0.4" d="M148.845 101.178C148.825 101.212 148.803 101.244 148.778 101.274L122.206 89.4864C121.197 89.0401 120.061 88.9733 119.007 89.2983C117.953 89.6233 117.052 90.3182 116.47 91.255L115.418 90.6431C116.004 89.7103 116.906 89.0193 117.959 88.6964C119.012 88.3734 120.146 88.44 121.154 88.8841L148.845 101.178Z" fill="white"/>
<path d="M150.441 53.2157C150.383 52.8716 150.202 52.776 149.963 52.9385C149.844 53.0267 149.741 53.1332 149.657 53.254L149.523 53.4404L123.324 89.9405L119.409 95.3945C119.157 95.7123 118.823 95.9554 118.443 96.0977C118.063 96.24 117.652 96.2762 117.253 96.2023L113.874 95.3992L88.0616 89.2617C87.8881 89.2263 87.7093 89.2263 87.5358 89.2617C87.4685 89.2753 87.4027 89.2962 87.3398 89.3239L88.0521 88.9128L112.908 94.8256L116.297 95.6C116.696 95.675 117.108 95.6393 117.488 95.4969C117.868 95.3545 118.202 95.1108 118.453 94.7922L122.368 89.343L148.715 52.6565C148.795 52.5474 148.896 52.4549 149.011 52.384L146.746 51.0791L147.702 50.5294L149.279 51.4376C149.582 51.6415 149.84 51.9039 150.04 52.2093C150.239 52.5146 150.375 52.8569 150.441 53.2157Z" fill="#38B6FF"/>
<path opacity="0.4" d="M123.324 89.9405L119.409 95.3945C119.157 95.7123 118.823 95.9554 118.444 96.0977C118.064 96.24 117.652 96.2762 117.253 96.2023L113.874 95.3992L113.941 95.3419L114.103 95.0838L116.317 95.6096C116.715 95.6845 117.127 95.6489 117.507 95.5065C117.887 95.3641 118.221 95.1204 118.472 94.8017L122.349 89.4099L123.324 89.9405Z" fill="white"/>
<path opacity="0.1" d="M149.261 51.4376L147.683 50.5294L146.727 51.0791L149.007 52.3936C148.892 52.4648 148.792 52.5573 148.711 52.666L122.368 89.3525L122.33 89.4051L123.286 89.9357L149.519 53.4404L149.653 53.254C149.737 53.1332 149.84 53.0267 149.958 52.9385C150.193 52.776 150.374 52.8716 150.436 53.2157C150.37 52.8557 150.231 52.5128 150.029 52.2073C149.827 51.9019 149.566 51.6401 149.261 51.4376Z" fill="black"/>
<path d="M88.5783 90.0265L82.957 86.7761V135.193C82.981 135.609 83.1019 136.014 83.3103 136.375C83.5186 136.736 83.8085 137.043 84.1568 137.272L85.5048 138.051C85.876 138.236 86.2851 138.332 86.6998 138.332C87.1145 138.332 87.5235 138.236 87.8948 138.051L88.5687 137.659L88.5783 90.0265Z" fill="#38B6FF"/>
<path opacity="0.15" d="M88.5783 90.0265L82.957 86.7761V135.193C82.981 135.609 83.1019 136.014 83.3103 136.375C83.5186 136.736 83.8085 137.043 84.1568 137.272L85.5048 138.051C85.876 138.236 86.2851 138.332 86.6998 138.332C87.1145 138.332 87.5235 138.236 87.8948 138.051L88.5687 137.659L88.5783 90.0265Z" fill="black"/>
<path d="M149.523 53.4404V99.9594C149.511 100.39 149.382 100.81 149.151 101.173C148.975 101.482 148.735 101.749 148.448 101.957L148.405 101.986L148.324 102.039L86.9675 137.458C86.8939 137.504 86.8153 137.541 86.7333 137.568C86.7282 137.497 86.7282 137.425 86.7333 137.353V90.342C86.7227 90.1736 86.7531 90.0051 86.822 89.851C86.8908 89.697 86.9961 89.5619 87.1287 89.4576C87.2613 89.3532 87.4173 89.2826 87.5832 89.2518C87.7491 89.221 87.92 89.231 88.0813 89.2808L113.893 95.4184L117.273 96.2214C117.672 96.2953 118.083 96.2592 118.463 96.1168C118.843 95.9745 119.176 95.7314 119.428 95.4136L123.324 89.9405L149.523 53.4404Z" fill="#455A64"/>
<path d="M150.465 53.536V100.566C150.45 100.997 150.321 101.416 150.092 101.781C149.914 102.088 149.675 102.357 149.39 102.569L149.342 102.593C149.317 102.612 149.292 102.63 149.265 102.646L87.9092 138.046C87.7919 138.13 87.6556 138.182 87.5127 138.199C87.3699 138.216 87.2251 138.196 87.0918 138.142C86.99 138.083 86.9042 137.999 86.8417 137.899C86.7793 137.8 86.7421 137.686 86.7333 137.568C86.7282 137.497 86.7282 137.425 86.7333 137.353V90.342C86.7227 90.1736 86.7531 90.0051 86.822 89.851C86.8908 89.697 86.9961 89.5619 87.1287 89.4576C87.2613 89.3532 87.4173 89.2826 87.5832 89.2518C87.7491 89.221 87.92 89.231 88.0813 89.2808L113.893 95.4184L117.273 96.2214C117.672 96.2953 118.083 96.2592 118.463 96.1168C118.843 95.9745 119.176 95.7314 119.428 95.4136L123.324 89.9405L149.542 53.4404L149.676 53.254C150.092 52.6374 150.465 52.7521 150.465 53.536Z" fill="#38B6FF"/>
<path d="M149.265 102.627L149.342 102.574L149.39 102.55C149.675 102.338 149.914 102.069 150.092 101.761C150.315 101.403 150.442 100.993 150.46 100.571L123.324 89.9405L141.488 107.115L149.265 102.627Z" fill="#38B6FF"/>
<path opacity="0.2" d="M149.265 102.627L149.342 102.574L149.39 102.55C149.675 102.338 149.914 102.069 150.092 101.761C150.315 101.403 150.442 100.993 150.46 100.571L123.324 89.9405L141.488 107.115L149.265 102.627Z" fill="black"/>
<path d="M86.7095 137.358C86.6919 137.511 86.7176 137.666 86.7834 137.806C86.8493 137.945 86.9528 138.063 87.0823 138.147C87.2156 138.201 87.3604 138.22 87.5033 138.204C87.6461 138.187 87.7825 138.135 87.8997 138.051L109.023 125.857L113.846 95.404L86.7095 136.574V137.358Z" fill="#38B6FF"/>
<path opacity="0.15" d="M116.455 91.2502L87.0774 138.142C86.9479 138.058 86.8444 137.94 86.7785 137.801C86.7127 137.661 86.687 137.506 86.7046 137.353V136.574L112.627 95.122L112.827 94.8017L115.404 90.6718L116.455 91.2502Z" fill="black"/>
<path d="M150.092 101.761C149.914 102.069 149.675 102.338 149.39 102.55L149.342 102.574L87.9092 138.046C87.792 138.13 87.6556 138.182 87.5127 138.199C87.3699 138.216 87.2251 138.196 87.0918 138.142L116.47 91.2359C117.059 90.2949 117.967 89.5977 119.029 89.2721C120.09 88.9464 121.233 89.014 122.249 89.4625L150.092 101.761Z" fill="#38B6FF"/>
<path d="M150.092 101.766C149.917 102.075 149.677 102.342 149.389 102.55L149.346 102.579L87.9043 138.051C87.7863 138.133 87.6498 138.184 87.5071 138.2C87.3644 138.216 87.22 138.196 87.0869 138.142L87.9043 136.842L148.28 101.977L148.328 101.948C148.583 101.762 148.799 101.528 148.964 101.26L150.092 101.766Z" fill="#38B6FF"/>
<path opacity="0.15" d="M83.1719 82.4263L84.1279 82.9904C83.9924 83.4144 83.9168 83.8552 83.9033 84.3001V87.3402L82.9473 86.7761V83.7313C82.9612 83.288 83.0369 82.8488 83.1719 82.4263Z" fill="black"/>
<path d="M88.9458 89.1088L88.0471 88.8937L87.3349 89.3047L86.3502 88.7359L83.9268 87.3402L84.8684 86.7809L88.9458 89.1088Z" fill="#38B6FF"/>
<path opacity="0.1" d="M88.9465 89.1088L84.874 86.7857L83.918 87.3449L86.3414 88.7407L87.3261 89.3095C87.3833 89.2811 87.4446 89.2618 87.5078 89.2522C87.6812 89.2167 87.8601 89.2167 88.0335 89.2522L90.0173 89.7302L112.627 95.122L112.827 94.8017L88.9465 89.1088Z" fill="black"/>
<path d="M161.803 90.9825L157.267 88.3535L157.228 88.3296C155.249 87.2111 152.53 87.3736 149.523 89.1183C143.472 92.6125 138.562 101.111 138.562 108.1C138.562 111.589 139.791 114.041 141.765 115.188L145.9 117.578L146.856 115.958C147.961 115.713 149.021 115.301 150.001 114.734C156.053 111.24 160.962 102.741 160.962 95.753C160.961 94.8088 160.845 93.8682 160.617 92.9519L161.803 90.9825Z" fill="#F28F8F"/>
<path opacity="0.15" d="M138.964 104.424C138.696 105.633 138.557 106.866 138.548 108.104C138.548 111.594 139.776 114.046 141.75 115.193L145.885 117.583L146.841 115.963C147.946 115.718 149.007 115.305 149.986 114.739C151.057 114.112 152.059 113.374 152.974 112.536L138.964 104.424Z" fill="black"/>
<path d="M153.825 91.6087C147.773 95.1029 142.864 103.602 142.864 110.59C142.864 117.578 147.773 120.413 153.825 116.919C159.876 113.425 164.785 104.926 164.785 97.9374C164.785 90.9491 159.881 88.1145 153.825 91.6087Z" fill="#FFA8A7"/>
<path d="M158.156 101.336V98.6496C158.156 95.5857 156.291 94.1756 153.997 95.5044C151.698 96.8332 149.834 100.39 149.834 103.454V105.844C149.783 107.502 149.301 109.118 148.433 110.533C148.22 110.908 148.103 111.33 148.094 111.761C148.094 112.531 148.572 112.889 149.141 112.555L158.858 106.943C159.177 106.714 159.438 106.414 159.619 106.066C159.801 105.718 159.899 105.332 159.905 104.94C159.92 104.79 159.9 104.639 159.847 104.498C159.794 104.357 159.709 104.23 159.599 104.128C158.72 103.755 158.156 102.77 158.156 101.336Z" fill="white"/>
<path d="M155.99 109.462C155.99 110.934 155.096 112.641 153.997 113.286C152.898 113.931 151.999 113.248 151.999 111.78L155.99 109.462Z" fill="white"/>
</svg>
