<svg width="11" height="9" viewBox="0 0 11 9" fill="none" xmlns="http://www.w3.org/2000/svg">
<path d="M1.03125 3.46875H2.0625V6.21875H1.375C1.28383 6.21875 1.1964 6.25497 1.13193 6.31944C1.06747 6.3839 1.03125 6.47134 1.03125 6.5625C1.03125 6.65367 1.06747 6.74111 1.13193 6.80557C1.1964 6.87004 1.28383 6.90625 1.375 6.90625H9.625C9.71617 6.90625 9.8036 6.87004 9.86807 6.80557C9.93253 6.74111 9.96875 6.65367 9.96875 6.5625C9.96875 6.47134 9.93253 6.3839 9.86807 6.31944C9.8036 6.25497 9.71617 6.21875 9.625 6.21875H8.9375V3.46875H9.96875C10.0435 3.46862 10.1161 3.44416 10.1756 3.39907C10.2352 3.35398 10.2784 3.29071 10.2988 3.21885C10.3192 3.14699 10.3157 3.07044 10.2887 3.00078C10.2617 2.93113 10.2127 2.87217 10.1492 2.83282L5.68047 0.0828161C5.62639 0.0488735 5.56384 0.0308685 5.5 0.0308685C5.43616 0.0308685 5.37361 0.0488735 5.31953 0.0828161L0.850781 2.83282C0.787286 2.87217 0.738336 2.93113 0.711342 3.00078C0.684347 3.07044 0.680776 3.14699 0.70117 3.21885C0.721563 3.29071 0.764811 3.35398 0.824368 3.39907C0.883925 3.44416 0.956549 3.46862 1.03125 3.46875ZM2.75 3.46875H4.125V6.21875H2.75V3.46875ZM6.1875 3.46875V6.21875H4.8125V3.46875H6.1875ZM8.25 6.21875H6.875V3.46875H8.25V6.21875ZM5.5 0.77891L8.75273 2.78125H2.24727L5.5 0.77891ZM10.6562 7.9375C10.6562 8.02867 10.62 8.11611 10.5556 8.18057C10.4911 8.24504 10.4037 8.28125 10.3125 8.28125H0.6875C0.596332 8.28125 0.508898 8.24504 0.444432 8.18057C0.379966 8.11611 0.34375 8.02867 0.34375 7.9375C0.34375 7.84634 0.379966 7.7589 0.444432 7.69444C0.508898 7.62997 0.596332 7.59375 0.6875 7.59375H10.3125C10.4037 7.59375 10.4911 7.62997 10.5556 7.69444C10.62 7.7589 10.6562 7.84634 10.6562 7.9375Z" fill="black"/>
</svg>
